<?xml version="1.0" encoding="utf-8"?>
<!-- Generator: Adobe Illustrator 25.0.0, SVG Export Plug-In . SVG Version: 6.00 Build 0)  -->
<svg version="1.1" id="Layer_1" xmlns="http://www.w3.org/2000/svg" xmlns:xlink="http://www.w3.org/1999/xlink" x="0px" y="0px"
	 viewBox="0 0 800 800" style="enable-background:new 0 0 800 800;" xml:space="preserve">
<style type="text/css">
	.st0{fill:url(#Gradient_1_);}
	.st1{fill:none;stroke:#0C5E0C;stroke-width:10;}
	.st2{fill:#FFFFFF;}
</style>
<linearGradient id="Gradient_1_" gradientUnits="userSpaceOnUse" x1="63.9455" y1="63.7953" x2="735.6463" y2="735.4961">
	<stop  offset="0" style="stop-color:#B6E2B6"/>
	<stop  offset="1" style="stop-color:#115911"/>
</linearGradient>
<path id="Gradient" class="st0" d="M191.7,5C191.7,5,23.7,15.5,5,195.2c0,182.6,0,408.5,0,408.5S12,778,200.5,795
	c186.1,0,404.9,0,404.9,0S776.9,782.7,795,605.4c0-173.2,0-412,0-412S787.4,33.1,615.3,5C436.9,5,191.7,5,191.7,5z"/>
<path id="Edge" class="st1" d="M191.7,5C191.7,5,23.7,15.5,5,195.2c0,182.6,0,408.5,0,408.5S12,778,200.5,795
	c186.1,0,404.9,0,404.9,0S776.9,782.7,795,605.4c0-173.2,0-412,0-412S787.4,33.1,615.3,5C436.9,5,191.7,5,191.7,5z"/>
<g id="H">
	<g>
		
			<image style="overflow:visible;opacity:0.4;" width="514" height="582" xlink:href="B522789E.png"  transform="matrix(1 0 0 1 165 139)">
		</image>
		<path class="st2" d="M174.1,630c-0.1-1.6-0.2-3.3-0.3-4.9c0.1-12.6,0.2-25.2,0.3-37.7c0.5-6.1,1-12.2,1.4-18.3
			c1.5-20.6,3.1-41.1,4.6-61.7c1.3-20.3,2.6-40.6,4-60.9c0.2-0.8,0.5-1.6,0.5-2.4c0.2-24.5,0.3-49.1,0.5-73.6
			c0.2-9.1,0.5-18.2,0.7-27.3c0.1-7.4,0.2-14.7,0.3-22.1c0.2-0.8,0.5-1.6,0.5-2.4c0.5-32.8,1-65.7,1.5-98.5
			c0.2-11.8,0.4-23.5,0.8-35.3c0.2-4.9,0.8-9.8,1.1-14.7c4.5-12.5,13.1-21.3,25-26.9c5.3-1,10.6-2.1,15.9-3.1c4,0.3,8,0.6,12,0.9
			c3.3,1.1,6.6,2.1,9.9,3.2c2.7,1.7,5.3,3.4,8,5c1.5,1.3,3.1,2.7,4.6,4c2.1,2.7,4.2,5.4,6.3,8.2c1,2,2,4,3,6
			c0.3,0.9,0.5,1.9,0.8,2.8c0.5,5.4,1.5,10.8,1.5,16.3c-0.1,18.9-0.6,37.7-0.9,56.6c-0.7,21-1.3,42-2,63
			c-1.4,29.7-2.8,59.4-4.3,89.6c7.1-1.3,13.6-2.6,20.1-3.8c1.7-0.3,3.4-0.6,5-1c2.7-0.6,5.3-1.2,8-1.7c2.6-0.4,5.3-0.9,7.9-1.3
			c3.6-0.6,7.2-1.1,10.8-1.8c15.1-2.9,30.3-5.9,45.4-8.9c9.7-1.7,19.5-3.4,29.2-5.1c11.2-2,22.5-4,33.7-5.9c12.3-1.5,24.6-3,37-4.4
			c11-1.3,22.1-2.4,33.2-3.5c6.9-0.2,13.7-0.5,21.6-0.8c0-12.6,0-24.5,0-36.3c0.4-7.5,0.8-15.1,1.3-22.6c0.4-10.4,0.7-20.8,1.1-31.2
			c0.7-13.7,1.3-27.4,2-41.1c0.3-1.1,0.6-2.2,0.9-3.3c3.3-11.6,6.7-23.1,10.1-34.7c4.7-9.1,9-18.4,14.3-27.1
			c6.6-10.7,15.4-19.1,28.6-21.2c5,0.6,10,1.2,15,1.8c3.3,1.4,6.6,2.9,9.9,4.3c3.2,2.3,6.4,4.7,9.6,7c2.4,3,4.8,6,7.2,9
			c1.4,3.3,2.8,6.6,4.2,10c0.2,1.7,0.4,3.4,0.7,5.1c-0.4,5.4,0.1,11.1-1.4,16.2c-5.9,20.9-6.2,42.3-7.1,63.7c-1,21-1.9,42-2.9,63
			c-0.7,17-1.4,34-2.1,51c-1,20.3-2,40.7-2.9,61c-0.3,18.9-0.7,37.8-1,56.7c0,2.6,0.5,5.2,0.7,7.9c1,16.6,2,33.1,3,49.7
			c1.1,18.6,2.2,37.2,3.2,55.8c-0.2,7.6,0.5,15.4-0.7,22.9c-3.8,24-27.8,42.3-60.3,33.1c-4.5-2.3-8.9-4.6-13.4-6.9
			c-2.3-2-4.6-4-6.9-6c-2-2.7-3.9-5.3-5.9-8c-1.4-4.7-2.8-9.4-4.1-14c-0.7-22-1.3-44-2-66c-0.7-17-1.3-34-2-51
			c-0.2-8.1-0.4-16.2-0.6-24.3c0-0.6,0-1.1,0-1.7c0-2.3,0-4.7,0-7c0-2.3,0-4.7,0-7c0.2-6.7,0.4-13.3,0.7-20c-0.8-1-1.6-2.9-2.3-2.9
			c-14.5,1.2-29.1,2.5-43.6,3.9c-21,3-42,6-63,9c-24,4.4-48,8.7-72,13.1c-23.4,4.3-46.8,8.5-70,12.7c-1.3,21-2.6,41-3.9,61.1
			c-0.6,6.3-1.4,12.5-1.6,18.8c-0.9,19-1.6,38.1-2.3,57.1c-1.4,20.7-12.1,34.9-31,39.5c-6.8,1.6-14.1,1.1-21.2,1.6
			c-3.7-1-7.3-2-11-3.1c-3-1.6-6-3.2-9-4.9c-1.8-1.7-3.5-3.4-5.3-5.1c-1.2-1.4-2.4-2.8-3.6-4.1c-0.9-1.4-1.8-2.8-2.7-4.1
			C177,635.9,175.5,632.9,174.1,630z"/>
	</g>
</g>
</svg>
