<?xml version="1.0" encoding="utf-8"?>
<!-- Generator: Adobe Illustrator 25.0.0, SVG Export Plug-In . SVG Version: 6.00 Build 0)  -->
<svg version="1.1" id="Layer_1" xmlns="http://www.w3.org/2000/svg" xmlns:xlink="http://www.w3.org/1999/xlink" x="0px" y="0px"
	 viewBox="0 0 2184 2500" style="enable-background:new 0 0 2184 2500;" xml:space="preserve">
<style type="text/css">
	.st0{fill:#7289DA;}
	.st1{fill:#FFFFFF;}
</style>
<path class="st0" d="M1928.2,2H255.9C114.8,2,0,116.8,0,259.1v1687.3c0,142.3,114.8,257.1,255.8,257.1h1415.2l-66.2-230.9
	l159.7,148.5l151,139.8L2184,2498V259.1C2184,116.8,2069.2,2,1928.2,2z"/>
<path class="st1" d="M1446.4,1631.9c0,0-44.9-53.7-82.4-101.1c163.5-46.2,225.9-148.5,225.9-148.5c-51.2,33.7-99.8,57.4-143.5,73.6
	c-62.4,26.2-122.3,43.7-181,53.7c-119.8,22.5-229.6,16.2-323.2-1.2c-71.1-13.7-132.3-33.7-183.5-53.7c-28.7-11.2-59.9-25-91.1-42.4
	c-3.7-2.5-7.5-3.7-11.2-6.2c-1.9-0.9-3.6-2.2-5-3.7c-22.5-12.5-34.9-21.2-34.9-21.2s59.9,99.8,218.4,147.3
	c-37.4,47.4-83.6,103.6-83.6,103.6c-275.8-8.7-380.6-189.7-380.6-189.7c0-401.9,179.7-727.6,179.7-727.6
	c179.7-134.8,350.7-131,350.7-131l12.5,15C688.9,663.4,585.3,762,585.3,762s27.5-15,73.6-36.2c133.5-58.7,239.6-74.9,283.3-78.6
	c7.5-1.3,13.7-2.5,21.2-2.5c83.6-10.9,168.3-11.7,252.1-2.5c118.6,13.7,245.9,48.7,375.6,119.8c0,0-98.6-93.6-310.8-158.5l17.5-20
	c0,0,171-3.8,350.7,131c0,0,179.7,325.7,179.7,727.6C1828.3,1442.2,1722.2,1623.2,1446.4,1631.9L1446.4,1631.9z"/>
<path class="st0" d="M866.1,1049.1c-71.1,0-127.3,62.4-127.3,138.5c0,76.1,57.4,138.5,127.3,138.5c71.1,0,127.3-62.4,127.3-138.5
	C994.7,1111.5,937.3,1049.1,866.1,1049.1"/>
<path class="st0" d="M1321.6,1049.1c-71.1,0-127.3,62.4-127.3,138.5c0,76.1,57.4,138.5,127.3,138.5c71.1,0,127.3-62.4,127.3-138.5
	C1448.9,1111.5,1392.8,1049.1,1321.6,1049.1"/>
</svg>
