<?xml version="1.0" encoding="utf-8"?>
<!-- Generator: Adobe Illustrator 25.0.0, SVG Export Plug-In . SVG Version: 6.00 Build 0)  -->
<svg version="1.1" id="Layer_1" xmlns="http://www.w3.org/2000/svg" xmlns:xlink="http://www.w3.org/1999/xlink" x="0px" y="0px"
	 viewBox="0 0 1771 2008.5" style="enable-background:new 0 0 1771 2008.5;" xml:space="preserve">
<style type="text/css">
	.st0{fill:#E44D26;}
	.st1{fill:#F16529;}
	.st2{fill:#EBEBEB;}
	.st3{fill:#FFFFFF;}
</style>
<g>
	<path class="st0" d="M161.2,1807.7L0,0h1771l-161.3,1807.4l-725.2,201.1L161.2,1807.7z"/>
	<path class="st1" d="M885.5,1854.8l586-162.5l137.9-1544.5H885.5V1854.8z"/>
	<path class="st2" d="M885.5,818.3H592.1l-20.3-227h313.6V369.5H329.6l5.3,59.5l54.5,611h496.1V818.3z M885.5,1394.1l-1,0.3
		l-246.9-66.7l-15.8-176.8H399.3l31.1,348.1L884.5,1625l1-0.3V1394.1z"/>
	<path class="st3" d="M884.7,818.3V1040h273l-25.7,287.5l-247.3,66.7v230.7l454.5-126l3.3-37.5l52.1-583.7l5.4-59.5h-59.7
		L884.7,818.3z M884.7,369.5v221.7h535.5l4.4-49.8l10.1-112.4l5.3-59.5L884.7,369.5z"/>
</g>
</svg>
