<?xml version="1.0" encoding="utf-8"?>
<!-- Generator: Adobe Illustrator 25.0.0, SVG Export Plug-In . SVG Version: 6.00 Build 0)  -->
<svg version="1.1" id="Layer_1" xmlns="http://www.w3.org/2000/svg" xmlns:xlink="http://www.w3.org/1999/xlink" x="0px" y="0px"
	 viewBox="0 0 2499.4 2499.4" style="enable-background:new 0 0 2499.4 2499.4;" xml:space="preserve">
<style type="text/css">
	.st0{fill-rule:evenodd;clip-rule:evenodd;fill:#8993BE;}
	.st1{fill-rule:evenodd;clip-rule:evenodd;fill:#232531;}
</style>
<g>
	<circle class="st0" cx="1249.7" cy="1249.7" r="1249.7"/>
	<path class="st1" d="M350.7,1649.4l137-693.5h316.8c137,8.6,205.5,77.1,205.5,196.9c0,205.5-162.7,325.3-308.2,316.8H547.6
		l-34.2,179.8H350.7z M581.9,1341.1l42.8-256.8H736c59.9,0,102.7,25.7,102.7,77.1c-8.6,145.6-77.1,171.2-154.1,179.8L581.9,1341.1
		L581.9,1341.1z M978.1,1469.6l137-693.5h162.7l-34.2,179.8h154.1c137,8.6,188.4,77.1,171.2,162.7l-59.9,351h-171.3l59.9-316.8
		c8.6-42.8,8.6-68.5-51.4-68.5h-128.4l-77.1,385.3H978.1z M1498,1649.4l137-693.5h316.8c137,8.6,205.5,77.1,205.5,196.9
		c0,205.5-162.7,325.3-308.2,316.8H1695l-34.3,179.8H1498z M1729.1,1341.1l42.8-256.9h111.3c59.9,0,102.7,25.7,102.7,77.1
		c-8.6,145.6-77.1,171.2-154.1,179.8H1729.1L1729.1,1341.1z"/>
</g>
</svg>
