<svg id="Layer_1" data-name="Layer 1" xmlns="http://www.w3.org/2000/svg" viewBox="0 0 499.22 464.88"><defs><style>.cls-1{fill:#404040;}.cls-2{fill:#181818;}</style></defs><path class="cls-1" d="M393.8,206.75a239,239,0,0,0-13.53-54.52,219.42,219.42,0,0,0-27.49-51.18H266.29v32.31q.48.51.93,1Q283,152.23,290,180.23a216.53,216.53,0,0,1,4.77,26.52A343.88,343.88,0,0,1,297,247.43a352.54,352.54,0,0,1-2.25,41.22q-5.79,49-26.45,77.43c-.64.89-1.3,1.76-2,2.62V472.25q5.63-2.14,11.08-4.67a184.79,184.79,0,0,0,63.7-48.3q26.6-31.14,40.95-74.9a284.26,284.26,0,0,0,12-55.73,354.35,354.35,0,0,0,2.32-41.22A309.45,309.45,0,0,0,393.8,206.75ZM169,405.63H95.37V100.43H169V19.93H.87v464.8h194.6c2,0,4,0,5.92-.08H169Z" transform="translate(-0.87 -19.85)"/><path class="cls-2" d="M201.39,484.65h64.9v-12.4A193.86,193.86,0,0,1,201.39,484.65ZM169,19.85v.08h11.78q46.89,0,86.8,15.75t68.25,45.15a191.85,191.85,0,0,1,17,20.22H500.09V19.85Zm97.3,186.9V133.36Q250.77,116.3,227,108.48q-24-7.86-58-8V405.63h6.88q61.55,0,90.42-36.93V288.65h204.4v-81.9Z" transform="translate(-0.87 -19.85)"/><path class="cls-1" d="M352.78,101.05H266.29v32.31Q250.77,116.3,227,108.48q-24-7.86-58-8V19.93h11.78q46.89,0,86.8,15.75t68.25,45.15A191.85,191.85,0,0,1,352.78,101.05Z" transform="translate(-0.87 -19.85)"/><path class="cls-1" d="M266.29,368.7V472.25a193.86,193.86,0,0,1-64.9,12.4H169v-79h6.88Q237.42,405.63,266.29,368.7Z" transform="translate(-0.87 -19.85)"/></svg>