<svg id="Layer_1" data-name="Layer 1" xmlns="http://www.w3.org/2000/svg" viewBox="0 0 1457.67 1048.34"><defs><style>.cls-1{fill:#7289da;}</style></defs><path class="cls-1" d="M1648.6,714.62c-179.71-134.8-350.68-131-350.68-131l-17.47,20C1492.61,668.44,1591.2,762,1591.2,762,1461.41,690.9,1334.11,656,1215.56,642.23A1055.71,1055.71,0,0,0,1012,639.54q-24.3,2-48.51,5.18c-7.49,0-13.74,1.25-21.22,2.5-43.68,3.75-149.76,20-283.3,78.62C612.77,747.06,585.31,762,585.31,762s103.59-98.6,328.22-163.48l-12.48-15s-171-3.75-350.68,131c0,0-179.71,325.73-179.71,727.59,0,0,104.82,181,380.64,189.69,0,0,46.18-56.15,83.61-103.59C676.42,1480.89,616.51,1381,616.51,1381s12.48,8.74,34.94,21.22a17.29,17.29,0,0,0,5,3.74c3.74,2.5,7.49,3.74,11.22,6.24,31.21,17.48,62.41,31.2,91.12,42.44,51.16,20,112.31,39.92,183.45,53.66,93.6,17.47,203.42,23.71,323.23,1.24,58.66-10,118.56-27.45,181-53.67,43.68-16.21,92.35-39.92,143.52-73.62,0,0-62.4,102.33-225.89,148.51,37.45,47.43,82.37,101.1,82.37,101.1h0c275.81-8.74,381.89-189.69,381.89-189.69C1828.32,1040.34,1648.6,714.62,1648.6,714.62Zm-655.2,473c0,76.13-56.15,138.53-127.29,138.53-69.89,0-127.29-62.4-127.29-138.53S795,1049.08,866.11,1049.08h0C937.25,1049.08,994.66,1111.47,993.4,1187.6Zm328.24,138.53c-69.89,0-127.31-62.4-127.31-138.53s56.16-138.52,127.31-138.52,127.28,62.39,127.28,138.52S1392.77,1326.13,1321.64,1326.13Z" transform="translate(-370.66 -583.56)"/></svg>