<?xml version="1.0" encoding="utf-8"?>
<!-- Generator: Adobe Illustrator 25.0.0, SVG Export Plug-In . SVG Version: 6.00 Build 0)  -->
<svg version="1.1" id="Layer_1" xmlns="http://www.w3.org/2000/svg" xmlns:xlink="http://www.w3.org/1999/xlink" x="0px" y="0px"
	 viewBox="0 0 500 500" style="enable-background:new 0 0 500 500;" xml:space="preserve">
<style type="text/css">
	.st0{fill:#050403;}
	.st1{fill:#F8A41D;}
	.st2{fill:#FEFEFE;}
	.st3{fill:#FDFDFD;}
	.st4{fill:#262223;}
	.st5{fill:#5D4941;}
</style>
<g>
	<path class="st0" d="M475.9,160.7c-11.3,8.8-24.4,13.6-38.6,16.2c5.4,10.1,6.9,20.6,5.4,31.8c9.5,1.6,18.9,2,28.5,1.6
		c0.2,1.8,0.3,3.6,0.5,5.7c-10.1,0.5-20.2,0.1-30.2-1.6c-1.7,6.1-4.3,11.8-7.7,17.1c-7.4,11.5-17.4,20.4-28.6,27.9
		c-13.4,8.9-28.1,14.9-43.2,20.3c-16.1,5.7-32.6,9.5-49.6,11c-9,0.8-18.1,1.7-27.4,2.5c2,2,3.8,4.1,5.9,5.8
		c5.1,4.2,9.5,9.1,13.5,14.3c2.3,3,4.9,5.9,7.7,8.5c4.9,4.6,10.7,5.6,16.7,2.7c3.8-1.8,7.2-4.2,10.7-6.5c3.4-2.3,6.5-4.9,9.9-7.2
		c11.7-7.7,27-3,32.6,9.8c2.4,5.5,1.3,10.8-1.5,15.8c-2.6,4.7-6.2,8.5-10.2,12c-10.8,9.3-23,16.2-36.1,21.6
		c-11.3,4.6-21.5,2.5-30.6-5.3c-4.9-4.2-9.5-8.8-14.3-13.1c-2.3-2.1-5-3.8-7.5-5.6c-0.8-0.6-1.7-1-2.6-1.4
		c-6.3,12-13.9,22.8-24.3,32.8c0.5,0.2,1.3,0.3,1.7,0.7c20,20.2,41.4,39,63.1,57.3c0.6,0.5,1.7,0.8,2.5,0.7
		c15.8-1.9,31.7-2.7,47.3,1.4c3.9,1,7.9,2.6,11.4,4.6c10.1,5.7,14.5,15.6,13.2,27.2c-0.6,5.5-3.4,8.3-8.4,9.7
		c-6.1,1.8-12.5,2.3-18.8,2.5c-14.9,0.5-29.7-0.1-44.6-1.3c-8.2-0.7-16.5-1.5-24.7-2.3c-0.9-0.1-1.9-0.6-2.6-1.2
		c-23.2-18.9-45.7-38.7-67-59.8c-5.3-5.2-10.9-10.2-16.4-15.3c-24.7,16.1-50.1,30.3-78.6,39.1c0.4,0.6,0.8,1.1,1.1,1.7
		c4.2,6.1,8.3,12.2,10.4,19.5c2.1,7.3,1.8,14.4-4.2,19.8c-7.8,7.1-16.9,9.6-26.8,4.9c-8-3.8-14.5-9.6-20.4-16.1
		c-9.1-10-16.4-21.2-21.2-33.9c-2.2-5.8-3.8-11.7-3.2-18c0.4-5.4,2.8-9.5,7.6-12.1c7.3-4,14.7-4.5,22.4-1.4c0.6,0.2,1.4,0.4,1.9,0.2
		c9.8-3.2,19.4-6.7,28.5-11.5c0.1-0.1,0.2-0.2,0.4-0.3c-5.5-0.3-10.9-0.4-16.3-1c-17.6-1.7-34.4-6-49.3-16
		C47,365,36.6,349,33.2,328.5c-1.6-9.7-1.2-19.3,2.9-28.4c0.9-2.1,2.2-4.1,3.6-5.9c5.9-7.2,14.8-8.2,21.6-1.7
		c3.9,3.8,7.3,8.3,10.5,12.8c6.1,8.6,11.7,17.5,17.9,26c6.3,8.5,14,15.7,23.7,20.5c5.7,2.8,11.6,4.9,17.5,6.2
		c-2.6-6.7-5.4-13.4-7.9-20.2c-1-2.7-1.7-5.5-2.1-8.3c-0.9-6.6,1.5-12,6.4-16.4c1.3-1.2,2.6-2.4,4.1-3.3c9.1-5.8,17.1-12.9,25.1-20
		c3.7-3.3,7.7-6.3,11.7-9.1c6.1-4.1,12.9-6.3,20.5-6.4c-0.5-0.3-1.1-0.6-1.6-1c-15.9-9.3-30.3-20.5-42.4-34.5
		c-8.1-9.4-14.4-19.9-17.9-31.9c-0.1-0.3-0.2-0.6-0.4-1.1c-15.8,2.7-31.6,2.4-47.7,0.6c0-0.9,0.1-1.8,0.1-2.7c0.1-0.9,0.2-1.9,0.3-3
		c15.4,1.5,30.7,2.2,45.4-0.6c-0.3-6.4-0.7-12.7-0.9-19c0-1.2-0.3-2-1.4-2.7c-15-8.5-30.7-15.2-47.3-19.8c-0.2,0-0.3-0.1-0.7-0.3
		c0.1-0.8,0.3-1.7,0.5-2.6c0.2-0.9,0.4-1.8,0.6-2.9c8.7,2.1,16.9,5.1,25,8.6c8.1,3.5,16,7.4,23.7,11c1.4-5.9,2.6-12.2,4.3-18.3
		c4.8-16.2,12.4-31.1,22.2-44.9c0.8-1.1,1-2.1,0.8-3.5c-1.5-12.3-2.9-24.5-4.4-36.8c-1.5-12.3-2.9-24.5-4.4-36.8
		c-0.8-6.4-1.5-12.8-2.3-19.5c3.3,2.2,6.4,4.2,9.4,6.2c18,11.9,36,23.9,54,35.8c1.2,0.8,2.2,1,3.6,0.5c19.4-7,39.4-10.2,60-8.6
		c4,0.3,8,0.5,12,0.7c0.6,0,1.2-0.1,1.8-0.3c1.2-0.4,2.4-1.1,3.7-1.4c5.8-1.6,10.3-5,14.5-9.2C309.7,26,320.2,16,330.5,5.8
		c0.3-0.3,0.5-0.7,1-1.3c0.3,0.8,0.5,1.1,0.6,1.5c4.6,18.7,9.2,37.3,13.9,55.9c0.2,0.9,0.9,1.8,1.6,2.4c8.6,7.4,17.4,14.6,25.8,22.2
		c11.1,9.8,17.6,22.5,21.6,36.5c2.6,9.2,4.1,18.5,4.4,28.1c2.7,0.8,5.4,1.6,8,2.5c10,3.5,18.9,8.9,25.8,17.2
		c0.4,0.5,1.3,0.9,1.8,0.8c9.7-2.1,19.5-4.2,28.2-9.3c3.4-2,6.7-4.3,10.2-6.5c0.8,0.7,1.7,1.5,2.6,2.4
		C475.9,159,475.9,159.9,475.9,160.7z M60.6,367.9c7.2,6.3,15.5,10.7,24.5,13.9c11.3,4,23,6,34.9,6.6c11.5,0.5,22.9,0.6,34.2-2.1
		c0.9-0.2,1.8-0.5,3-0.8c-1.3-0.6-2.2-1.1-3.1-1.5c-7.9-4.3-13.6-10.9-18.4-18.4c-0.9-1.4-1.9-1.9-3.4-2.2
		c-6.6-1.3-13.1-3.4-19.2-6.2c-8-3.7-14.9-9-21-15.3c-4.4-5.6-9-11.1-13.1-16.9c-4.9-6.9-9.3-14.1-14.1-21.1c-2.5-3.7-5.2-7.2-9-9.7
		c-3.3-2.1-6.6-2.1-9.9-0.1c-2.5,1.5-4.1,3.6-5.4,6.1c-2.9,5.4-4,11.4-4,17.4C36.6,338,45.6,354.4,60.6,367.9z M277.9,335.7
		c1.3-3,2.8-6,3.9-9.1c2.1-5.6,3.7-11.3,4.2-17.3c0.8-9.2-3.7-14.7-12.8-15.6c-5.1-0.5-10.1-0.7-15.2-1.1c-13.6-1-27-3.1-40.3-6.2
		c-1.5-0.4-3-0.5-4.9-0.9c3.4,7.2,1.2,13.2-2.8,18.7c-2.8,3.8-6,7.5-9.6,10.5c-6.6,5.5-13.6,10.5-20.4,15.7
		c-1.7,1.3-3.4,2.6-5.4,4.2c1.7,1.6,3.2,3,4.7,4.4c4.8,4.9,9.5,10,12.9,16.1c2.6,4.6,4.5,9.5,3.1,14.9c-0.8,2.8-2.4,5.4-3.8,8.2
		c-0.1-0.1,0.1,0.1,0.4,0.3c15.2,12.4,29.8,25.3,43.8,39.1c19.4,19.1,39.9,36.9,60.9,54.2c0.9,0.8,2.3,1.4,3.5,1.5
		c7.2,0.8,14.5,1.5,21.7,2c17.3,1.3,34.6,2.4,51.9,0.9c4.2-0.4,8.4-1.5,12.5-2.5c1-0.3,2.4-1.2,2.6-2.1c1.3-6.7,1.2-13.2-3-19.1
		c-3-4.2-7.2-6.7-11.9-8.6c-8.3-3.3-17-4.2-25.8-4.5c-8.9-0.3-17.7,0.4-26.4,1.7c-0.9,0.1-2.3,0.1-2.9-0.5
		c-11-9.4-22.3-18.6-32.9-28.4c-16-14.9-31.6-30.3-47.3-45.5c-1.9-1.9-3.8-3.8-6-5.9c1.3-1.1,2.3-2.1,3.4-3c0.9,0.7,1.9,1.4,2.8,2.2
		c4.2,4.1,8.3,8.3,12.5,12.5c0.5,0.5,1,0.9,1.7,1.5c5-6.4,10-12.6,14.7-19C271.7,349.1,275.4,342.7,277.9,335.7z M394.5,153.9
		c0.1-11.8-2-23.2-5.7-34.3c-3.6-11-9.4-20.5-17.7-28.6c-8.7-8.5-18.1-16.3-27.7-23.7c-0.8-0.6-1.5-1.7-1.8-2.7
		c-3.4-13.4-6.7-26.9-10-40.3c-0.8-3.3-1.7-6.6-2.6-10.2c-0.6,0.6-1,0.9-1.3,1.2c-9.3,9.1-18.5,18.2-27.7,27.4
		c-2.4,2.4-4.8,4.8-8.3,5.6c-0.2,0-0.4,0.3-0.6,0.4c4.3,1.6,8.5,3.1,12.8,4.7c-0.8,1.7-1.4,3-2,4.4c-0.4-0.1-0.6-0.1-0.8-0.2
		c-7-2.4-13.7-6.1-21.5-5.5c-3.7,0.3-7.4-0.4-11.1-0.6c-15.3-1.1-30.5-0.1-45.3,3.9c-4.4,1.2-8.8,2.6-13.9,4.1
		c2.8,2.6,5.1,4.8,7.5,7c-1.2,1.3-2.3,2.3-3.5,3.6c-2.4-2.4-4.8-4.9-7.1-7.3c-1-1-1.9-2-3-2.8c-18.3-12.2-36.7-24.3-55-36.5
		c-0.4-0.3-0.9-0.5-1.5-0.8c0,0.7,0,1.1,0.1,1.4c0.8,6.5,1.5,13.1,2.3,19.6c1.3,11.3,2.7,22.5,4,33.8c1.2,9.9,2.4,19.8,3.5,29.7
		c0.1,1.1-0.4,2.5-1,3.4c-2,3.2-4.3,6.3-6.3,9.6c-10.1,16.5-17.4,34.1-20,53.5c-0.2,1.5,0.1,2.4,1.5,3.2c2.1,1.2,4,2.6,6.2,4
		c-1.2,1.7-2.3,3.1-3.4,4.6c-1.6-1-3.1-2-4.6-3c-0.2,0.1-0.3,0.2-0.5,0.3c0.5,5.6,1,11.2,1.4,16.8c1.6-0.1,2.7-0.2,4-0.3
		c0.2,1.9,0.4,3.7,0.7,5.6c-0.7,0.1-1.1,0.1-1.5,0.2c-0.4,0.1-0.8,0.2-1.3,0.3c0.1,0.6,0.2,1.1,0.4,1.5c3,9.8,8.1,18.4,14.5,26.3
		c11.7,14.4,26.1,25.8,42,35.2c9.8,5.7,19.9,10.8,31,13.2c9.3,2,18.7,3.5,28.2,4.7c7.3,0.9,14.6,1,21.9,1.5c2,0.1,4,0.5,6,0.4
		c6.9-0.2,13.8-0.3,20.7-0.8c9.1-0.6,18.4-0.8,27.3-2.4c23.3-4.1,45.6-11.5,66.6-22.4c13.1-6.8,25-15.1,34.6-26.4
		c5.7-6.7,10.1-14.1,12.4-22.7c-5.3-1.7-10.6-3.3-16-5c0.9-2.1,1.5-3.8,2.2-5.3c5.1,1.5,10,3,15,4.5c1.2-9.6-0.1-18.4-4.2-26.7
		c-1.6-3.3-1.6-3.3-5.3-2.6c-2.7,0.5-5.5,1-8.3,1.5c-0.3-2.1-0.6-3.8-0.9-5.7c3-0.5,5.8-1.1,8.9-1.6c-1.1-1.2-2-2.1-2.9-3
		c-8.4-8-18.4-12.6-29.6-15.1C395.6,154.5,395.1,154.1,394.5,153.9z M187.4,380.9c-4.4,2.9-8.9,5-13.9,5.9c-2.2,0.4-4.6,0.3-6.7,1
		c-7.2,2.3-14.6,4-22.1,5c-1.9,0.2-3.9,0.6-5.5,1.5c-12.2,6.8-25,12-38.3,16.2c-0.7,0.2-1.8,0.2-2.4-0.1c-6.8-3.4-13.4-3-19.9,0.6
		c-2.9,1.6-4.3,4.1-4.8,7.2c-0.7,4.7,0.3,9.2,1.8,13.7c4,12.2,10.7,22.9,18.9,32.7c5.7,6.8,12,12.8,19.9,17
		c6.5,3.5,12.7,3.4,19.1-0.3c6-3.5,8.4-8,7.4-14.9c-0.3-1.7-0.8-3.4-1.4-5.1c-2.4-6.8-6.5-12.5-10.7-18.3c-0.3-0.4-1.2-0.5-1.7-0.4
		c-2.6,0.7-5.1,1.5-7.8,2.4c-0.3-0.8-0.5-1.5-0.7-2.3c-0.2-0.8-0.5-1.5-0.8-2.5c16.2-4.5,31.9-9.7,46.9-17.1
		c14.9-7.3,29.3-15.5,43.3-24.9C201,392.4,194.2,386.7,187.4,380.9z M171.3,331c2.6-1.9,5-3.7,7.4-5.6c6.8-5.3,13.8-10.4,20.5-15.9
		c4.1-3.4,7.5-7.6,9.6-12.6c2.2-5.2,1.1-9.4-3.7-12.2c-8.7-5.2-18.1-7-27.9-3.2c-6.8,2.6-12.2,7.4-17.7,12
		c-6.9,5.7-13.8,11.4-20.8,17c-2.6,2.1-5.4,3.8-8,6c-4.7,3.9-6.4,9-4.8,15c0.7,2.5,1.4,5.1,2.3,7.5c3.9,10.9,8.7,21.2,15.9,30.3
		c3.6,4.5,7.7,8.4,13,10.9c10.4,4.9,19.8,2.3,28.5-4.2c5.3-3.9,6.3-8.9,3.9-15c-1.8-4.6-4.6-8.5-7.9-12.1
		c-5.1-5.6-10.5-11-15.7-16.5c-0.8-0.8-1.5-1.8-2.3-2.8c1.5-1,2.7-1.7,4-2.5C169.1,328.4,170.1,329.6,171.3,331z M281.6,339.6
		c4.9,3.9,9.7,7.5,14.3,11.4c3.6,3,6.8,6.5,10.3,9.6c8.3,7.5,17.5,9.1,27.8,4.5c2.9-1.3,5.8-2.6,8.7-4.1
		c10.6-5.4,20.7-11.6,28.8-20.4c2.3-2.5,4.3-5.6,5.8-8.7c2.3-4.6,1.4-9.1-2.1-12.8c-1.7-1.8-3.7-3.4-5.7-4.8
		c-4.8-3.3-10-3.6-15.1-0.7c-3,1.7-5.8,3.9-8.7,5.8c-4.7,3.1-9.3,6.7-14.3,9.3c-8.2,4.2-16.2,2.9-22.8-3.6
		c-3.9-3.8-7.2-8.2-10.7-12.3c-2.1-2.4-4.3-4.8-6.5-7.2C291,318.2,286.3,329.2,281.6,339.6z"/>
	<path class="st1" d="M269.7,287.9c-7.3-0.5-14.7-0.6-21.9-1.5c-9.4-1.2-18.9-2.6-28.2-4.7c-11.1-2.4-21.2-7.5-31-13.2
		c-16-9.4-30.3-20.8-42-35.2c-6.4-7.9-11.6-16.5-14.5-26.3c-0.1-0.5-0.2-0.9-0.4-1.5c0.5-0.1,0.9-0.2,1.3-0.3
		c0.4-0.1,0.9-0.1,1.5-0.2c-0.2-1.9-0.5-3.7-0.7-5.6c-1.3,0.1-2.4,0.2-4,0.3c-0.5-5.7-1-11.3-1.4-16.8c0.2-0.1,0.3-0.2,0.5-0.3
		c1.5,1,3,1.9,4.6,3c1.1-1.5,2.2-2.9,3.4-4.6c-2.1-1.4-4.1-2.9-6.2-4c-1.4-0.8-1.7-1.6-1.5-3.2c2.5-19.4,9.9-36.9,20-53.5
		c2-3.3,4.3-6.3,6.3-9.6c0.6-1,1.1-2.3,1-3.4c-1.1-9.9-2.3-19.8-3.5-29.7c-1.3-11.3-2.7-22.5-4-33.8c-0.8-6.5-1.5-13.1-2.3-19.6
		c0-0.4,0-0.7-0.1-1.4c0.6,0.3,1.1,0.5,1.5,0.8c18.3,12.1,36.7,24.3,55,36.5c1.1,0.8,2.1,1.8,3,2.8c2.4,2.4,4.7,4.8,7.1,7.3
		c1.2-1.2,2.2-2.3,3.5-3.6c-2.3-2.2-4.7-4.4-7.5-7c5-1.5,9.4-2.8,13.9-4.1c14.9-4,30-5.1,45.3-3.9c3.7,0.3,7.4,0.9,11.1,0.6
		c7.9-0.6,14.5,3.1,21.5,5.5c0.2,0.1,0.4,0.1,0.8,0.2c0.6-1.3,1.2-2.7,2-4.4c-4.4-1.6-8.5-3.1-12.8-4.7c0.2-0.1,0.4-0.4,0.6-0.4
		c3.5-0.8,5.9-3.1,8.3-5.6c9.2-9.2,18.5-18.3,27.7-27.4c0.4-0.3,0.7-0.7,1.3-1.2c0.9,3.5,1.7,6.9,2.6,10.2
		c3.3,13.4,6.6,26.9,10,40.3c0.2,1,1,2,1.8,2.7c9.7,7.4,19,15.2,27.7,23.7c8.3,8.1,14.1,17.7,17.7,28.6c3.7,11.2,5.8,22.6,5.7,34.3
		c-3-3.2-6-6.3-9-9.5c0.6-5,0.5-9.9-0.5-14.8c-3.2-15.6-10.9-28.7-22-39.9c-5.6-5.7-12.1-10.1-19.9-12.4c-11.6-3.5-22.6,0.9-27.7,11
		c-2.5,5-3.3,10.3-3,15.9c0.5,9.3,3.5,17.7,7.9,25.8c4.5,8.3,10.4,15.6,17.3,22.1c-1.1,3.3-2.2,6.5-3.3,9.8
		c-3.6-0.1-7.1-0.3-10.7-0.4c-5.5-0.1-11-0.2-16.5-0.2c-2.7,0-5.4-0.1-8.1,0.2c-5.3,0.5-9.7,4-7,10.7c-8.4-1.7-16.5-4.4-24.4-7.7
		c1.6-4.6,2.5-9.3,2.5-14.2c-0.2-15.6-6.1-28.9-16.4-40.4c-7.5-8.4-16.6-14.4-27.9-16.8c-13.3-2.8-25.9,2.4-32.4,13.5
		c-3.5,6-5,12.6-5,19.4c0.1,12.8,4.4,24.3,11.8,34.7c5.6,7.8,12.6,13.9,21,18.5c-0.3,0.1-0.7,0.3-1,0.4c-7.7,1.5-15.1,3.8-21.9,7.6
		c-6.9,3.8-12.6,8.8-14.6,16.8c-1.3,5.1-0.9,10.2-0.1,15.3c2.2,13.3,9.2,23.9,18.8,33.1c12,11.4,26.1,19.5,41.2,25.8
		C252.1,281.8,260.9,284.7,269.7,287.9z"/>
	<path class="st2" d="M269.7,287.9c-8.7-3.2-17.6-6.2-26.2-9.8c-15.1-6.3-29.2-14.4-41.2-25.8c-9.6-9.1-16.6-19.8-18.8-33.1
		c-0.8-5.1-1.2-10.3,0.1-15.3c2-8,7.7-13,14.6-16.8c6.8-3.8,14.3-6.1,21.9-7.6c0.4-0.1,0.7-0.2,1-0.4c1.6,0.7,3.2,1.4,4.8,2
		c7.5,2.8,15.2,3.7,23,1.2c9.1-2.9,15-9.2,18.5-17.9c7.9,3.3,16,6,24.4,7.7c1.2,1.5,2.2,3.1,3.6,4.3c6.9,6.2,14.9,10.5,23.7,13.2
		c3.8,1.2,7.1,0.2,10-2.5c4.4-4.2,7.5-9.3,9.7-15c2-5.3,1.9-8.5-4.7-10.3c1.1-3.3,2.2-6.5,3.3-9.8c0.5,0.4,1.1,0.8,1.6,1.3
		c5.5,4.5,11.4,8.1,18.4,9.8c11,2.7,21.2-1.7,25.6-11.5c1-2.3,1.6-4.9,2.3-7.3c3,3.2,6,6.3,9,9.5c0.6,0.3,1.2,0.7,1.8,0.8
		c11.1,2.5,21.2,7.1,29.6,15.1c0.9,0.9,1.8,1.9,2.9,3c-3.1,0.6-5.9,1.1-8.9,1.6c0.3,1.8,0.6,3.6,0.9,5.7c2.8-0.5,5.6-0.9,8.3-1.5
		c3.6-0.7,3.6-0.7,5.3,2.6c4.1,8.3,5.4,17.1,4.2,26.7c-5-1.5-10-3-15-4.5c-0.6,1.6-1.3,3.2-2.2,5.3c5.4,1.7,10.6,3.3,16,5
		c-2.3,8.5-6.7,16-12.4,22.7c-9.6,11.3-21.5,19.7-34.6,26.4c-21,10.9-43.3,18.3-66.6,22.4c-9,1.6-18.2,1.8-27.3,2.4
		c-6.9,0.5-13.8,0.6-20.7,0.8C273.7,288.4,271.7,288.1,269.7,287.9z M378.6,223.9c-22.2-3-43.9-5.2-65-10.7
		c-21-5.5-41.9-11.5-63-17.3c-2.1,6.6-3.8,13.3-4.3,20.3c-0.9,13.4,2.9,25.1,13,34.4c6,5.5,13,9,20.4,12c17.4,7,34.7,6.7,51.8-0.8
		c14.7-6.4,27.1-16.1,38.1-27.7C372.8,231,375.5,227.5,378.6,223.9z"/>
	<path class="st1" d="M235.8,357.8c-1.1,1-2.2,1.9-3.4,3c2.2,2.2,4.1,4,6,5.9c15.8,15.2,31.3,30.6,47.3,45.5
		c10.6,9.9,21.9,19,32.9,28.4c0.7,0.6,2,0.6,2.9,0.5c8.8-1.3,17.6-2,26.4-1.7c8.8,0.3,17.5,1.2,25.8,4.5c4.7,1.9,8.9,4.4,11.9,8.6
		c4.2,5.8,4.4,12.4,3,19.1c-0.2,0.9-1.6,1.9-2.6,2.1c-4.1,1-8.3,2.2-12.5,2.5c-17.3,1.5-34.6,0.4-51.9-0.9c-7.3-0.6-14.5-1.2-21.7-2
		c-1.2-0.1-2.5-0.7-3.5-1.5c-21-17.3-41.5-35.1-60.9-54.2c-13.9-13.7-28.6-26.7-43.8-39.1c-0.2-0.2-0.5-0.4-0.4-0.3
		c1.3-2.8,3-5.4,3.8-8.2c1.5-5.4-0.5-10.3-3.1-14.9c-3.4-6.1-8.1-11.1-12.9-16.1c-1.4-1.5-3-2.9-4.7-4.4c2-1.5,3.7-2.8,5.4-4.2
		c6.8-5.2,13.8-10.2,20.4-15.7c3.6-3,6.8-6.7,9.6-10.5c4-5.4,6.2-11.5,2.8-18.7c1.9,0.3,3.4,0.5,4.9,0.9c13.3,3.1,26.7,5.2,40.3,6.2
		c5.1,0.4,10.1,0.6,15.2,1.1c9.1,0.9,13.5,6.5,12.8,15.6c-0.5,6-2,11.7-4.2,17.3c-1.2,3.1-2.6,6.1-3.9,9.1c-1-4.7-3.8-8.1-7.4-11
		c-5.3-4.2-11.2-7.2-17.6-9c-6.8-1.9-13.4-1.7-19.7,1.6c-5.2,2.8-9.4,6.9-13.2,11.3c-2,2.4-2.4,5.3-1.7,8.3c0.8,3.3,2.3,6.3,4.6,8.7
		C227,349.9,231.5,353.8,235.8,357.8z"/>
	<path class="st1" d="M187.4,380.9c6.8,5.7,13.6,11.5,20.5,17.4c-14.1,9.4-28.5,17.6-43.3,24.9c-14.9,7.4-30.7,12.5-46.9,17.1
		c0.3,1,0.5,1.7,0.8,2.5c0.2,0.7,0.4,1.4,0.7,2.3c2.7-0.8,5.2-1.7,7.8-2.4c0.5-0.1,1.4,0,1.7,0.4c4.1,5.8,8.3,11.5,10.7,18.3
		c0.6,1.6,1.1,3.3,1.4,5.1c1,6.8-1.4,11.3-7.4,14.9c-6.4,3.7-12.6,3.8-19.1,0.3c-7.9-4.2-14.2-10.3-19.9-17
		c-8.2-9.8-14.9-20.4-18.9-32.7c-1.4-4.4-2.5-8.9-1.8-13.7c0.5-3.2,1.9-5.6,4.8-7.2c6.5-3.7,13.1-4.1,19.9-0.6
		c0.7,0.3,1.7,0.4,2.4,0.1c13.3-4.1,26.1-9.4,38.3-16.2c1.6-0.9,3.6-1.2,5.5-1.5c7.5-1,14.9-2.6,22.1-5c2.1-0.7,4.5-0.5,6.7-1
		C178.5,385.9,183,383.8,187.4,380.9z"/>
	<path class="st1" d="M171.3,331c-1.2-1.3-2.3-2.5-3.5-3.9c-1.2,0.8-2.5,1.6-4,2.5c0.8,1,1.5,1.9,2.3,2.8
		c5.2,5.5,10.6,10.9,15.7,16.5c3.3,3.6,6.1,7.5,7.9,12.1c2.5,6.2,1.4,11.1-3.9,15c-8.7,6.5-18.1,9.1-28.5,4.2
		c-5.3-2.5-9.4-6.4-13-10.9c-7.3-9.1-12.1-19.4-15.9-30.3c-0.9-2.5-1.6-5-2.3-7.5c-1.6-6,0-11.1,4.8-15c2.5-2.1,5.4-3.9,8-6
		c7-5.6,13.9-11.3,20.8-17c5.5-4.6,10.9-9.3,17.7-12c9.8-3.8,19.1-2.1,27.9,3.2c4.7,2.8,5.8,7,3.7,12.2c-2.1,5-5.5,9.2-9.6,12.6
		c-6.7,5.5-13.6,10.7-20.5,15.9C176.3,327.2,173.9,329,171.3,331z"/>
	<path class="st1" d="M281.6,339.6c4.7-10.5,9.5-21.4,9.8-34c2.2,2.4,4.3,4.8,6.5,7.2c3.6,4.1,6.8,8.5,10.7,12.3
		c6.6,6.4,14.6,7.7,22.8,3.6c5-2.6,9.6-6.1,14.3-9.3c2.9-1.9,5.7-4.1,8.7-5.8c5.1-2.9,10.2-2.6,15.1,0.7c2.1,1.4,4,3,5.7,4.8
		c3.5,3.7,4.4,8.2,2.1,12.8c-1.5,3.1-3.5,6.1-5.8,8.7c-8.1,8.8-18.3,15-28.8,20.4c-2.8,1.5-5.8,2.8-8.7,4.1
		c-10.3,4.7-19.5,3-27.8-4.5c-3.5-3.2-6.7-6.6-10.3-9.6C291.3,347.1,286.5,343.5,281.6,339.6z"/>
	<path class="st1" d="M92.2,341.8c6.1,6.3,13,11.6,21,15.3c6.2,2.8,12.6,4.9,19.2,6.2c1.5,0.3,2.5,0.9,3.4,2.2
		c4.8,7.5,10.4,14.1,18.4,18.4c0.9,0.5,1.8,0.9,3.1,1.5c-1.2,0.3-2.1,0.6-3,0.8c-11.3,2.7-22.7,2.6-34.2,2.1
		c-12-0.6-23.6-2.6-34.9-6.6c-9-3.2-17.3-7.6-24.5-13.9c0.1-0.7,0.3-1.5,0.2-2.2c-0.2-1.7-0.5-3.5-0.8-5.2
		c-1.1-7.3,1.4-12.4,7.7-15.8c3.5-1.9,7.2-3,11.1-3.2C83.2,341.4,87.7,341.7,92.2,341.8z"/>
	<path class="st2" d="M235.8,357.8c-4.3-4-8.7-7.9-12.9-12c-2.3-2.4-3.9-5.4-4.6-8.7c-0.7-3.1-0.3-6,1.7-8.3
		c3.8-4.5,8-8.5,13.2-11.3c6.3-3.4,12.9-3.6,19.7-1.6c6.5,1.8,12.3,4.9,17.6,9c3.6,2.9,6.5,6.3,7.4,11c-2.6,7-6.2,13.4-10.5,19.3
		c-4.7,6.4-9.7,12.6-14.7,19c-0.7-0.7-1.2-1.1-1.7-1.5c-4.2-4.2-8.3-8.4-12.5-12.5C237.7,359.2,236.7,358.5,235.8,357.8z"/>
	<path class="st3" d="M92.2,341.8c-4.5-0.1-9-0.4-13.5-0.2c-3.9,0.1-7.6,1.3-11.1,3.2c-6.3,3.4-8.8,8.5-7.7,15.8
		c0.3,1.7,0.6,3.5,0.8,5.2c0.1,0.7-0.1,1.4-0.2,2.2c-14.9-13.5-24-29.9-24-50.4c0-6,1.1-12,4-17.4c1.3-2.5,3-4.6,5.4-6.1
		c3.3-2,6.6-2,9.9,0.1c3.8,2.5,6.5,6,9,9.7c4.8,7,9.2,14.2,14.1,21.1C83.2,330.7,87.8,336.1,92.2,341.8z"/>
	<path class="st0" d="M267.5,164.5c-3.5,8.7-9.4,15-18.5,17.9c-7.8,2.5-15.5,1.6-23-1.2c-1.6-0.6-3.2-1.3-4.8-2
		c-8.4-4.6-15.4-10.7-21-18.5c-7.4-10.4-11.8-21.8-11.8-34.7c0-6.9,1.4-13.4,5-19.4c6.5-11.1,19.1-16.4,32.4-13.5
		c11.2,2.4,20.3,8.4,27.9,16.8c10.3,11.5,16.2,24.8,16.4,40.4C270,155.1,269,159.9,267.5,164.5z M265.1,149.7
		c-0.4-14.1-5.8-26.1-15.1-36.5c-6.6-7.4-14.6-12.8-24.4-15.1c-13-3.1-24.6,2.4-29.7,14c-1.8,4-2.6,8.2-2.7,12.6
		c-0.3,13.2,4.3,24.8,12.3,35.1c7.1,9.2,16,15.9,27.5,18.5c13.5,3.1,25.5-3.2,30.1-15.8C264.5,158.3,265.2,154.1,265.1,149.7z"/>
	<path class="st0" d="M385.5,144.4c-0.8,2.4-1.3,5-2.3,7.3c-4.4,9.7-14.6,14.2-25.6,11.5c-7-1.7-12.9-5.3-18.4-9.8
		c-0.5-0.4-1.1-0.8-1.6-1.3c-6.9-6.5-12.8-13.8-17.3-22.1c-4.4-8.1-7.4-16.6-7.9-25.8c-0.3-5.5,0.5-10.9,3-15.9
		c5.2-10.1,16.1-14.4,27.7-11c7.8,2.3,14.2,6.8,19.9,12.4c11.1,11.2,18.8,24.3,22,39.9C386,134.5,386.1,139.4,385.5,144.4z
		 M381.2,138.8c-0.3-2.6-0.4-4.9-0.8-7.1c-3-16.2-11.1-29.5-23.1-40.6c-4.3-3.9-9.1-7-14.7-8.9c-11.7-3.9-22,1.5-24.8,13
		c-1.2,5.1-1,10.2,0.1,15.3c3.5,15.4,11.7,27.9,23.3,38.3c4.8,4.3,10.2,7.7,16.5,9.4c10.7,3,19.6-1.8,22.3-12.2
		C380.7,143.6,380.9,141,381.2,138.8z"/>
	<path class="st0" d="M334.2,161.9c6.6,1.8,6.7,5,4.7,10.3c-2.2,5.7-5.3,10.7-9.7,15c-2.9,2.8-6.2,3.7-10,2.5
		c-8.9-2.7-16.9-6.9-23.7-13.2c-1.4-1.2-2.4-2.9-3.6-4.3c-2.6-6.7,1.7-10.2,7-10.7c2.7-0.2,5.4-0.2,8.1-0.2c5.5,0,11,0.1,16.5,0.2
		C327.1,161.6,330.6,161.7,334.2,161.9z M304,166.4c0-0.1,0-0.2,0-0.4c-0.8,0-1.6,0-2.4,0c-0.7,0-1.5,0.1-2.2,0.3
		c-1.1,0.4-2.8,0.8-3.1,1.6c-0.3,1,0.6,2.3,1.2,3.5c0.3,0.5,0.8,0.9,1.3,1.4c6.1,5.7,13.4,9.4,21.2,12c3.1,1.1,5.3-0.2,7.3-2.4
		c3.2-3.7,5.7-7.8,7.4-12.3c1-2.7,0.9-2.9-1.9-3.4c-0.8-0.1-1.6-0.3-2.4-0.3C321.5,166.4,312.7,166.4,304,166.4z"/>
	<path class="st4" d="M378.6,223.9c-3.1,3.6-5.9,7.1-8.9,10.3c-11,11.6-23.3,21.2-38.1,27.7c-17.2,7.5-34.4,7.8-51.8,0.8
		c-7.4-3-14.5-6.6-20.4-12c-10.1-9.3-13.9-21-13-34.4c0.5-7,2.2-13.7,4.3-20.3c21,5.8,41.9,11.8,63,17.3
		C334.7,218.7,356.5,220.9,378.6,223.9z M367.4,228.8c-0.1-0.3-0.2-0.6-0.3-1c-38.7-3-75.5-14.2-112.5-25.1c-0.4,1.6-0.9,3-1.1,4.5
		c-0.6,3.8-1.3,7.7-1.4,11.6c-0.4,11.5,3.6,21.2,12.6,28.7c5.2,4.3,11.2,7.3,17.5,9.8c13.9,5.6,27.9,6.3,42,1.3
		c10.8-3.8,20.4-9.6,29.1-16.9C358.1,237.6,362.7,233.1,367.4,228.8z"/>
	<path class="st3" d="M265.1,149.7c0.1,4.4-0.6,8.6-2.1,12.7c-4.6,12.6-16.6,19-30.1,15.8c-11.5-2.7-20.4-9.4-27.5-18.5
		c-8-10.3-12.6-21.9-12.3-35.1c0.1-4.4,1-8.6,2.7-12.6c5.1-11.6,16.8-17.1,29.7-14c9.8,2.3,17.7,7.7,24.4,15.1
		C259.3,123.5,264.7,135.6,265.1,149.7z M249.2,147.6c0-5.2-4-9.5-8.7-9.4c-4.7,0.1-8.6,4.3-8.6,9.4c0,5.2,3.9,9.4,8.7,9.4
		C245.4,157,249.3,152.9,249.2,147.6z"/>
	<path class="st3" d="M381.2,138.8c-0.3,2.2-0.5,4.8-1.1,7.2c-2.7,10.4-11.5,15.2-22.3,12.2c-6.3-1.7-11.7-5.1-16.5-9.4
		c-11.6-10.4-19.8-23-23.3-38.3c-1.2-5.1-1.4-10.2-0.1-15.3c2.8-11.5,13.1-16.9,24.8-13c5.6,1.9,10.4,5,14.7,8.9
		c11.9,11.1,20,24.4,23.1,40.6C380.8,133.9,380.9,136.2,381.2,138.8z M369.4,138c0-5.3-3.9-9.4-8.7-9.3c-4.7,0-8.6,4.3-8.6,9.4
		c0,5.1,4,9.5,8.7,9.4C365.6,147.5,369.5,143.3,369.4,138z"/>
	<path class="st5" d="M304,166.4c8.8,0,17.5,0,26.3,0c0.8,0,1.6,0.2,2.4,0.3c2.8,0.5,2.9,0.7,1.9,3.4c-1.7,4.6-4.3,8.6-7.4,12.3
		c-1.9,2.2-4.1,3.5-7.3,2.4c-7.8-2.7-15.1-6.3-21.2-12c-0.5-0.4-1-0.8-1.3-1.4c-0.5-1.1-1.4-2.5-1.2-3.5c0.2-0.8,2-1.2,3.1-1.6
		c0.7-0.3,1.5-0.3,2.2-0.3c0.8-0.1,1.6,0,2.4,0C304,166.1,304,166.3,304,166.4z"/>
	<path class="st3" d="M367.4,228.8c-4.7,4.3-9.3,8.8-14.1,12.9c-8.7,7.3-18.3,13.1-29.1,16.9c-14.2,5-28.2,4.3-42-1.3
		c-6.3-2.5-12.2-5.4-17.5-9.8c-9-7.5-13-17.2-12.6-28.7c0.1-3.9,0.9-7.7,1.4-11.6c0.2-1.5,0.7-2.9,1.1-4.5
		c37,10.8,73.8,22.1,112.5,25.1C367.2,228.2,367.3,228.5,367.4,228.8z"/>
	<path class="st0" d="M249.2,147.6c0,5.3-3.8,9.4-8.7,9.4c-4.8,0-8.7-4.2-8.7-9.4c0-5.1,3.9-9.3,8.6-9.4
		C245.3,138.2,249.2,142.4,249.2,147.6z"/>
	<path class="st0" d="M369.4,138c0,5.2-3.8,9.5-8.6,9.5c-4.8,0-8.7-4.3-8.7-9.4c0-5.1,3.9-9.3,8.6-9.4
		C365.6,128.7,369.4,132.8,369.4,138z"/>
</g>
</svg>
